<?xml version="1.0" encoding="UTF-8" standalone="no"?>
<svg width="96px" height="32px" viewBox="0 0 96 32" version="1.1" xmlns="http://www.w3.org/2000/svg" xmlns:xlink="http://www.w3.org/1999/xlink" xmlns:sketch="http://www.bohemiancoding.com/sketch/ns">
    <!-- Generator: Sketch 3.4.4 (17249) - http://www.bohemiancoding.com/sketch -->
    <title>Logo</title>
    <desc>Created with Sketch.</desc>
    <defs></defs>
    <g id="Page-1" stroke="none" stroke-width="1" fill="none" fill-rule="evenodd" sketch:type="MSPage">
        <g id="Landing-Page-Mobile" sketch:type="MSArtboardGroup" transform="translate(-20.000000, -30.000000)">
            <g id="Header" sketch:type="MSLayerGroup" transform="translate(20.000000, 30.000000)">
                <g id="Logo" sketch:type="MSShapeGroup">
                    <path d="M92.8594118,9.23189955 L89.3780354,14.9556728 L85.8971164,9.23189955 L82.7565282,9.23189955 L82.7565282,22.7679446 L85.61305,22.7679446 L85.61305,13.9888013 L89.3022538,19.7125746 L89.3780354,19.7125746 L93.1047488,13.9309823 L93.1047488,22.7679446 L96,22.7679446 L96,9.23189955 L92.8594118,9.23189955 Z M77.120181,16.0386499 C77.120181,18.3592038 75.4929364,20.2544528 73.1473682,20.2544528 C70.80119,20.2544528 69.1365883,18.3202422 69.1365883,16.0003117 L69.1365883,15.9613501 C69.1365883,13.6406403 70.7636805,11.7461706 73.1092487,11.7461706 C75.4554268,11.7461706 77.120181,13.6796019 77.120181,16.0003117 L77.120181,16.0386499 Z M73.1473682,9 C69.0608068,9 66.0905364,12.1521507 66.0905364,16.0003117 L66.0905364,16.0386499 C66.0905364,19.8866551 69.0232972,23 73.1092487,23 C77.19581,23 80.1660804,19.8476935 80.1660804,16.0003117 L80.1660804,15.9613501 C80.1660804,12.1131891 77.2339295,9 73.1473682,9 L73.1473682,9 Z M61.0974937,13.8920207 C61.0974937,15.033596 60.2838714,15.8065945 58.8650641,15.8065945 L55.9138535,15.8065945 L55.9138535,11.9196277 L58.8084948,11.9196277 C60.2273021,11.9196277 61.0974937,12.5777674 61.0974937,13.8536824 L61.0974937,13.8920207 Z M64.0487043,13.737421 L64.0487043,13.6990827 C64.0487043,10.9145739 62.1761227,9.23189955 59.0544417,9.23189955 L53,9.23189955 L53,22.7679446 L55.9138535,22.7679446 L55.9138535,18.4365037 L58.2028524,18.4365037 L61.0403145,22.7679446 L64.4460618,22.7679446 L61.2106323,17.933743 C62.8944463,17.2957075 64.0487043,15.9230118 64.0487043,13.737421 L64.0487043,13.737421 Z" id="Fill-1" fill="#000000"></path>
                    <g id="Group-12">
                        <path d="M30.8345732,7.55517803 L12.146226,7.55517803 L9.31237838,10.3925622 L21.4905615,22.5859436 L33.6688526,10.3925622 L30.8345732,7.55517803 Z" id="Fill-5" fill="#DC002E"></path>
                        <path d="M34.657148,1.26027898 C34.0988842,0.700886106 33.3669454,0.421081594 32.6350066,0.420649296 L32.6350066,0.420216999 L13.5169516,0.420216999 C14.9876293,2.04425037 14.9910834,4.52866371 13.5266662,6.15702006 L32.6350066,6.15702006 L32.6350066,6.15658777 C33.3669454,6.15572317 34.0988842,5.87581058 34.657148,5.31641771 C35.7761584,4.19644314 35.7761584,2.38036163 34.657148,1.26027898" id="Fill-6" fill="#EF5A0C"></path>
                        <path d="M12.375166,1.28394727 C11.2583144,0.165161514 9.44061068,0.165161514 8.32321942,1.28394727 L3.49335181,6.12027478 C4.54910953,6.17679767 5.53362709,6.6095274 6.28629027,7.3622653 L8.32116856,9.4001154 L12.375166,5.34095059 C13.4925572,4.22227291 13.4925572,2.40273302 12.375166,1.28394727" id="Fill-7" fill="#EFA40C"></path>
                        <path d="M5.28536589,8.38270339 C4.16840639,7.26391764 2.35070267,7.26391764 1.23341935,8.38270339 C0.116459843,9.50094877 0.116459843,11.320921 1.23374317,12.4397067 L17.2211166,28.4469241 C17.268718,27.4176239 17.6794283,26.4015088 18.4632861,25.6171051 L20.4807861,23.596655 L5.28536589,8.38270339 Z" id="Fill-8" fill="#759D0C"></path>
                        <path d="M36.6949407,13.4228591 L34.6781963,11.4037059 L19.4633469,26.6371109 C18.3464954,27.7557886 18.3464954,29.5757607 19.4633469,30.6941142 C20.5807382,31.8127919 22.3984419,31.8127919 23.5152935,30.6945465 L39.5228516,14.6670112 C38.4536014,14.6184858 37.4555914,14.1840268 36.6949407,13.4228591" id="Fill-9" fill="#37589F"></path>
                        <path d="M41.7473799,8.38270339 L36.8968958,3.5260579 C36.8369893,4.53633699 36.4271424,5.52964842 35.6580724,6.29967822 C34.8924565,7.06635771 33.888078,7.50578805 32.8124594,7.55053083 L37.6954333,12.4397067 C38.8128246,13.5579521 40.6300965,13.5579521 41.7473799,12.4397067 C42.8643394,11.320921 42.8643394,9.50138107 41.7473799,8.38270339" id="Fill-10" fill="#A10D87"></path>
                        <path d="M31.2300641,2.48411301 L31.2300641,4.14078484 L32.6627471,4.96906672 L34.0959698,4.14078484 L34.0959698,2.48411301 L32.6627471,1.65583113 L31.2300641,2.48411301 Z M39.6814149,8.75458726 L38.2481923,9.58286913 L38.2481923,11.2394329 L39.6814149,12.0677148 L41.1140979,11.2394329 L41.1140979,9.58286913 L39.6814149,8.75458726 Z M20.0574468,27.8365201 L20.0574468,29.4930839 L21.4905615,30.3213657 L22.9233524,29.4930839 L22.9233524,27.8365201 L21.4905615,27.0081302 L20.0574468,27.8365201 Z M1.86670128,9.58286913 L1.86670128,11.2394329 L3.29981602,12.0677148 L4.73293076,11.2394329 L4.73293076,9.58286913 L3.29981602,8.75458726 L1.86670128,9.58286913 Z M8.88364208,2.48411301 L8.88364208,4.14078484 L10.3167568,4.96906672 L11.7494398,4.14078484 L11.7494398,2.48411301 L10.3167568,1.65583113 L8.88364208,2.48411301 Z" id="Fill-11" fill="#FFFFFF"></path>
                    </g>
                </g>
            </g>
        </g>
    </g>
</svg>